<?xml version="1.0" encoding="utf-8"?>
<!-- Generator: Adobe Illustrator 26.0.1, SVG Export Plug-In . SVG Version: 6.00 Build 0)  -->
<svg version="1.1" id="Слой_1" xmlns="http://www.w3.org/2000/svg" xmlns:xlink="http://www.w3.org/1999/xlink" x="0px" y="0px"
	 viewBox="0 0 27 26" style="enable-background:new 0 0 27 26;" xml:space="preserve">
<g>
	<path d="M17,19c-0.1-0.2-0.3-0.2-0.4-0.1L10,23.3c-0.2,0.1-0.1,0.4,0.1,0.5l9.1,2.2c0.2,0.1,0.4-0.2,0.3-0.4L17,19z"/>
	<path d="M26.5,10.6L20.3,0.3c-0.1-0.1-0.3-0.2-0.4-0.1L9.7,7.7C9.7,7.8,9.6,7.8,9.6,7.9v4.3c0,0.2,0.2,0.3,0.4,0.3l7.8-2.2
		c0.2-0.1,0.4,0.1,0.4,0.3v6.7c0,0,0,0.1,0,0.1l2.6,6.9c0.1,0.2,0.5,0.3,0.6,0l5.2-13.5C26.5,10.8,26.5,10.7,26.5,10.6z"/>
	<path d="M3.3,5l5.3,1.5c0.1,0,0.2,0,0.3,0l8-5.9C17,0.3,16.9,0,16.6,0L7.2,0.7c-0.1,0-0.1,0-0.2,0.1L3.1,4.5C3,4.6,3.1,4.9,3.3,5z"
		/>
	<path d="M16.5,16.6v-4c0-0.2-0.2-0.3-0.4-0.3l-7.7,2.2C8.2,14.6,8,14.5,8,14.3V8c0-0.1-0.1-0.2-0.2-0.3L2.2,6.2
		C2,6.1,1.8,6.3,1.8,6.4l-1.3,10c0,0.1,0,0.2,0.1,0.2l6.7,6c0.1,0.1,0.3,0.1,0.4,0l8.7-5.8C16.4,16.8,16.5,16.7,16.5,16.6z"/>
</g>
</svg>
