<?xml version="1.0" encoding="utf-8"?>
<!-- Generator: Adobe Illustrator 26.0.1, SVG Export Plug-In . SVG Version: 6.00 Build 0)  -->
<svg version="1.1" id="Слой_1" xmlns="http://www.w3.org/2000/svg" xmlns:xlink="http://www.w3.org/1999/xlink" x="0px" y="0px"
	 viewBox="0 0 29 24" style="enable-background:new 0 0 29 24;" xml:space="preserve">
<style type="text/css">
	.st0{fill-rule:evenodd;clip-rule:evenodd;}
</style>
<path class="st0" d="M28.7,1.2c0-0.2-0.1-0.5-0.4-0.7c-0.3-0.3-0.8-0.3-1-0.3c-1,0-2.5,0.5-9.8,3.6C15,4.8,9.9,7,2.2,10.4
	c-1.2,0.5-1.9,1-2,1.4c-0.1,0.9,1.2,1.2,2.8,1.7c1.3,0.4,3.1,0.9,4.1,1c0.8,0,1.8-0.3,2.8-1.1c7.1-4.8,10.8-7.3,11.1-7.3
	c0.2,0,0.4-0.1,0.5,0.1c0.2,0.1,0.1,0.4,0.1,0.5c-0.1,0.6-6.8,6.7-7.2,7.1c-1.5,1.5-3.2,2.5-0.6,4.2c2.2,1.5,3.5,2.4,5.9,3.9
	c1.5,1,2.6,2.1,4.2,2c0.7-0.1,1.4-0.7,1.8-2.7c0.9-4.6,2.6-14.7,3-18.9C28.8,1.9,28.7,1.4,28.7,1.2z"/>
</svg>
