<?xml version="1.0" encoding="utf-8"?>
<!-- Generator: Adobe Illustrator 26.0.1, SVG Export Plug-In . SVG Version: 6.00 Build 0)  -->
<svg version="1.1" id="Слой_1" xmlns="http://www.w3.org/2000/svg" xmlns:xlink="http://www.w3.org/1999/xlink" x="0px" y="0px"
	 viewBox="0 0 580.5 97.6" style="enable-background:new 0 0 580.5 97.6;" xml:space="preserve">
<style type="text/css">
	.sst0{fill:#0098EA;}
</style>
<g>
	<path d="M261.1,48.8c-0.3-1.8-0.8-3.5-1.5-5.3c-0.7-1.7-1.7-3.3-3-4.7c-1.3-1.4-2.8-2.5-4.7-3.4c-1.9-0.8-4.2-1.3-6.9-1.3
		c-3.6,0-6.7,0.8-9.3,2.3c-1.8,1.1-3.3,2.4-4.5,4.1v-5.2h-6.1v41.5h6.9V55c0-2.4,0.3-4.5,0.8-6.3c0.6-1.8,1.3-3.3,2.3-4.5
		s2.2-2,3.6-2.6c1.4-0.6,3-0.9,4.7-0.9c2.2,0,4,0.4,5.5,1.3c1.5,0.8,2.6,2,3.5,3.5c0.9,1.4,1.5,3.1,1.8,4.9c0.4,1.8,0.5,3.7,0.5,5.7
		v20.8h6.9V54C261.6,52.2,261.5,50.5,261.1,48.8z"/>
	<path d="M207.5,36.9c-3-1.9-6.6-2.8-10.7-2.8c-4,0-7.6,0.9-10.6,2.8c-3,1.8-5.3,4.4-6.9,7.6c-1.6,3.3-2.5,7.1-2.5,11.4
		s0.8,8.1,2.4,11.4c1.6,3.3,3.9,5.9,6.9,7.8s6.5,2.8,10.7,2.8c4.1,0,7.7-0.9,10.7-2.8s5.3-4.4,6.9-7.7c1.6-3.3,2.4-7.1,2.4-11.4
		s-0.8-8-2.4-11.3C212.7,41.3,210.4,38.7,207.5,36.9z M206.3,67.1c-2.1,2.9-5.3,4.3-9.6,4.3c-4.2,0-7.3-1.4-9.5-4.2
		c-2.1-2.8-3.2-6.6-3.2-11.2c0-3,0.5-5.7,1.4-8s2.3-4.1,4.2-5.4c1.9-1.3,4.2-2,7.1-2c4.2,0,7.4,1.4,9.6,4.2
		c2.1,2.8,3.2,6.5,3.2,11.2C209.5,60.5,208.4,64.2,206.3,67.1z"/>
	<path d="M142.8,23.7H136v11.6h-8.4v5.6h8.4V61c0,2.1,0,4,0.1,5.7s0.5,3.3,1.3,5c1,1.9,2.4,3.2,4.3,4.1c1.9,0.9,4,1.3,6.4,1.4
		s4.8-0.1,7.3-0.6v-5.9c-2.8,0.4-5.3,0.5-7.3,0.2s-3.5-1.2-4.4-2.9c-0.5-0.9-0.8-1.9-0.8-3.1s0-2.6,0-4.3V40.8h12.5v-5.5h-12.5V23.7
		H142.8z"/>
	<rect x="113.8" y="20.3" width="6.8" height="56.4"/>
	<rect x="94.7" y="20.9" width="6.8" height="7.1"/>
	<rect x="94.7" y="35.3" width="6.8" height="41.5"/>
	<path d="M76.3,57.1c0,2.4-0.3,4.5-0.8,6.3s-1.3,3.3-2.3,4.5s-2.2,2-3.6,2.6s-3,0.9-4.7,0.9c-2.2,0-4-0.4-5.5-1.3
		c-1.4-0.8-2.6-2-3.5-3.5c-0.8-1.5-1.4-3.1-1.8-4.9c-0.4-1.8-0.5-3.7-0.5-5.6V35.3h-6.9v22.9c0,1.6,0.1,3.2,0.4,5
		c0.3,1.8,0.8,3.5,1.5,5.3c0.7,1.7,1.7,3.3,3,4.7c1.3,1.4,2.8,2.5,4.7,3.4c1.9,0.8,4.2,1.3,6.9,1.3c3.6,0,6.6-0.8,9.2-2.3
		c1.8-1.1,3.3-2.5,4.6-4.2v5.4h6.1V35.3h-6.9v21.8H76.3z"/>
	<path d="M31,47.4c1.5-0.9,2.8-2.1,3.9-3.6c1.5-2.3,2.3-4.9,2.3-7.9c0-2.6-0.6-4.9-1.9-7.1c-1.2-2.2-3-4-5.4-5.4
		c-2.3-1.4-5.1-2-8.4-2H0v55.3h23.5c3.4,0,6.3-0.7,8.8-2s4.4-3.1,5.7-5.5s2-5.1,2-8.4c0-3.5-1-6.5-3-9.1
		C35.4,49.9,33.5,48.4,31,47.4z M6.9,27.9h14.5c2.6,0,4.7,0.8,6.3,2.3c1.6,1.5,2.4,3.5,2.4,5.8c0,1.7-0.4,3.2-1.2,4.5
		c-0.8,1.3-1.8,2.3-3.1,3c-1.3,0.7-2.8,1-4.4,1H6.9V27.9z M31.4,65.8c-0.9,1.4-2.2,2.5-3.8,3.2c-1.6,0.7-3.4,1.1-5.5,1.1H6.9V50.9
		h16c2,0,3.7,0.4,5.2,1.3c1.5,0.9,2.7,2,3.5,3.5s1.3,3.2,1.3,5C32.9,62.8,32.4,64.5,31.4,65.8z"/>
</g>
<g>
	<path class="sst0" d="M371.4,33.6h-13.6v30.9l4.5-8.7l10.8-19.4C373.8,35.2,372.9,33.6,371.4,33.6z"/>
	<path class="sst0" d="M354.8,0.2c-27,0-48.8,21.9-48.8,48.8c0,27,21.9,48.8,48.8,48.8c27,0,48.8-21.9,48.8-48.8
		C403.6,22.1,381.7,0.2,354.8,0.2z M378.4,39.5l-20.6,35.7c-1.3,2.3-4.7,2.3-6.1,0l-20.6-35.7c-3.1-5.3,0.8-12,6.9-12h33.4l0,0
		C377.6,27.5,381.5,34.1,378.4,39.5z"/>
	<path class="sst0" d="M351.7,33.6h-13.6c-1.5,0-2.4,1.6-1.7,2.8l10.8,19.3l4.5,8.7L351.7,33.6L351.7,33.6z"/>
</g>
<g>
	<polygon points="569.9,21.4 569.9,58.3 545.9,21.4 535.3,21.4 535.3,76.7 545.9,76.7 545.9,39.9 569.9,76.7 580.5,76.7 580.5,21.4 
			"/>
	<path d="M515.1,23.9c-4-2.4-8.8-3.6-14.3-3.6s-10.3,1.2-14.3,3.6c-4,2.4-7.1,5.8-9.3,10.1c-2.1,4.3-3.2,9.4-3.2,15.1
		s1.1,10.8,3.2,15.1c2.2,4.3,5.3,7.7,9.3,10.1s8.8,3.6,14.3,3.6s10.3-1.2,14.3-3.6s7.1-5.8,9.2-10.1c2.2-4.3,3.3-9.4,3.3-15.1
		s-1.1-10.8-3.3-15.1C522.2,29.7,519.1,26.3,515.1,23.9z M514.8,59.1c-1.2,2.9-2.9,5.1-5.2,6.6c-2.3,1.6-5.2,2.3-8.8,2.3
		c-3.5-0.1-6.4-0.9-8.8-2.4c-2.3-1.6-4.1-3.7-5.3-6.6c-1.2-2.8-1.7-6.1-1.7-10s0.6-7.2,1.7-10.1c1.2-2.9,2.9-5.1,5.3-6.6
		c2.3-1.6,5.2-2.3,8.8-2.3c3.5,0.1,6.4,0.9,8.8,2.4c2.3,1.6,4.1,3.7,5.2,6.6c1.2,2.8,1.8,6.1,1.8,10S516,56.3,514.8,59.1z"/>
	<polygon points="425.6,31.2 443.1,31.2 443.1,76.7 453.5,76.7 453.5,31.2 470.9,31.2 470.9,21.4 425.6,21.4 	"/>
</g>
</svg>
