<?xml version="1.0" encoding="utf-8"?>
<!-- Generator: Adobe Illustrator 26.0.1, SVG Export Plug-In . SVG Version: 6.00 Build 0)  -->
<svg version="1.1" id="Слой_1" xmlns="http://www.w3.org/2000/svg" xmlns:xlink="http://www.w3.org/1999/xlink" x="0px" y="0px"
	 viewBox="0 0 1000 160.8" style="enable-background:new 0 0 1000 160.8;" xml:space="preserve">
<g>
	<path d="M968,5.9l-12.5,57.2c-1,4.4-2,9.6-3.2,15.6c-1.1,6-2.2,11.8-3.2,17.6c-1,5.7-1.7,9-1.9,10l-0.8,0.2L902.9,5.9h-35.8
		l-31.4,151.5h32.4l9.7-45.2c4-18.6,7.6-37.1,10.8-55.4h0.8l43.5,100.6h35.8l31.7-151.5H968z"/>
	<path d="M801.6,11c-10.4-5-22.4-7.5-36.2-7.5c-13.3,0-25.5,2.5-36.6,7.5c-11,4.9-20.1,11.5-27.5,19.8c-7.2,8.2-12.8,17.6-16.8,28.4
		c-3.9,10.6-5.9,21.7-5.9,33.3c0,10.8,1.7,20.5,5.1,29.2c3.4,8.5,8.3,15.5,14.5,21.1s13.5,9.8,22,12.7s17.8,4.3,28.2,4.3
		c10.7,0,20.7-1.6,30.2-4.9c9.4-3.2,17.5-7.7,24.4-13.3c6.8-5.7,12.7-12.3,17.7-19.7c5-7.5,8.6-15.6,11.1-24.4s3.7-17.7,3.7-27
		c0-14.3-3-26.6-9.1-36.8C820.2,23.6,812,16,801.6,11z M796.4,92.8c-2.2,6.1-5.3,11.7-9.4,16.7c-4,4.9-9.1,8.9-15.4,11.9
		c-6.3,3-13.1,4.5-20.6,4.5c-11.4,0-20.4-3.2-27.1-9.7c-6.5-6.5-9.7-15.3-9.7-26.5c0-6.4,1.1-12.7,3.3-18.9
		c2.3-6.1,5.4-11.7,9.4-16.7c4-5.1,9.1-9.1,15.3-12.2c6.3-3.1,13.1-4.6,20.6-4.6c11.4,0,20.4,3.3,27.1,9.9c6.6,6.6,9.9,15.6,9.9,27
		C799.8,80.5,798.7,86.7,796.4,92.8z"/>
	<polygon points="691.7,5.9 563.5,5.9 556.9,39.3 604.3,39.3 579.2,157.4 612.7,157.4 637.9,39.3 685.2,39.3 	"/>
	<path d="M545.9,55.5c-4.9-4.1-10.5-7.1-16.8-9.2s-13.2-3.2-20.6-3.2c-12.6,0-24,3-34,9c-10,5.9-17.7,13.8-23,23.7
		c-5.4,9.9-8.1,20.8-8.1,32.8c0,7,1,13.3,2.9,19c1.9,5.6,4.5,10.4,7.7,14.2c3.3,3.9,7.2,7.1,11.8,9.8c4.5,2.6,9.3,4.5,14.4,5.7
		c5.1,1.2,10.5,1.8,16.1,1.8c9.5,0,18.3-1.7,26.5-5.2c8.2-3.4,15.1-8.1,20.7-14c5.6-5.9,10.1-12.8,13.2-20.8
		c3.2-8,4.9-16.5,4.9-25.5c0-8.4-1.4-15.8-4.2-22.4C554.6,64.8,550.8,59.5,545.9,55.5z M528.3,106.1c-0.7,3-1.9,6-3.5,8.9
		c-1.7,2.8-3.6,5.3-6,7.6c-2.3,2.2-5.1,3.9-8.6,5.3c-3.4,1.3-7.2,2-11.3,2c-7.3,0-13-2.1-17.3-6.4c-4.2-4.3-6.3-10.3-6.3-18
		c0-3.9,0.6-7.7,1.9-11.4c1.2-3.8,3-7.3,5.4-10.5c2.4-3.2,5.6-5.8,9.6-7.8c4.1-2,8.6-3.1,13.6-3.1c7.2,0,12.9,2.2,17.1,6.5
		c4.3,4.3,6.4,10.3,6.4,17.9C529.5,100.1,529.1,103.1,528.3,106.1z"/>
	<path d="M394,43.2c-13.8,0-24.8,4.7-32.6,14.2L373.7-1h-31.6l-32.9,158.4H341l3.6-17.3c2.1,6.3,6,11,11.7,14.3
		c5.6,3.2,12.8,4.9,21.4,4.9c11.9,0,22.5-3.1,31.8-9.4c9.2-6.3,16.3-14.6,21.1-25c4.8-10.3,7.2-21.8,7.2-34.5
		c0-14.8-3.9-26.4-11.8-34.8C418.2,47.4,407.4,43.2,394,43.2z M403.7,108c-1.3,4.1-3.2,7.9-5.8,11.3c-2.5,3.3-5.7,6-9.7,8
		s-8.5,3-13.4,3c-7.1,0-12.7-2-16.8-5.9s-6.2-9.7-6.2-17.4c0-4.5,0.7-8.8,2-12.9c1.3-4.1,3.2-7.9,5.7-11.3c2.5-3.4,5.7-6,9.7-8
		c4-2,8.4-3.1,13.3-3.1c7.2,0,12.9,2,17,5.9s6.2,9.7,6.2,17.4C405.6,99.6,405,103.9,403.7,108z"/>
	<path d="M323.9,45.3h-11.3c-7,0-13.2,1.9-18.7,5.8c-5.4,3.9-9.8,8.9-13.2,15.2l4.4-21h-29.7l-23.2,112.1h31.4l13.3-63
		c2.3-10.7,8.7-16,19.1-16H317L323.9,45.3z"/>
	<path d="M205.2,45.3l-11.9,57.4c-1.9,8.8-5.2,15.6-10,20.5c-4.8,4.8-10.9,7.2-18.3,7.2c-3.9,0-7.2-0.7-9.7-2.1
		c-2.5-1.5-4.1-3.3-5-5.6c-0.8-2.3-1.3-4.9-1.5-7.7c-0.1-2.9,0.2-5.7,0.9-8.5l12.7-61.1H131L117,113.5c-0.8,4.6-1.2,9-1.3,13.4
		c-0.1,4.4,0.6,8.5,2.1,12.4c1.5,3.9,3.5,7.4,6.1,10.3c2.5,3,6.1,5.3,10.6,7.1c4.6,1.7,9.9,2.5,15.9,2.5c13.7,0,25.6-6.4,35.6-19.2
		l-3.5,17.3H213l23.3-112.1C236.4,45.3,205.2,45.3,205.2,45.3z"/>
	<polygon points="135.2,5.9 6.9,5.9 0.4,39.3 47.8,39.3 22.6,157.4 56.1,157.4 81.4,39.3 128.7,39.3 	"/>
</g>
</svg>
