<?xml version="1.0" encoding="utf-8"?>
<!-- Generator: Adobe Illustrator 26.0.1, SVG Export Plug-In . SVG Version: 6.00 Build 0)  -->
<svg version="1.1" id="Слой_1" xmlns="http://www.w3.org/2000/svg" xmlns:xlink="http://www.w3.org/1999/xlink" x="0px" y="0px"
	 viewBox="0 0 1000 744" style="enable-background:new 0 0 1000 744;" xml:space="preserve">
<style type="text/css">
	.st0{opacity:0.45;}
	.st1{fill-rule:evenodd;clip-rule:evenodd;}
</style>
<g class="st0">
	<path class="st1" d="M508.5,746c76.9,5.4,102.8-88.5,164.7-124.8c48.8-28.6,110.4-37.5,160-65.3c60.5-33.9,144.6-59.4,163.3-115.9
		c18.5-56.1-41.9-109-71.3-162.2c-25.3-45.8-54.9-88.3-90.2-129.8C797.2,104,774.7,39.4,709.4,25C640.8,9.9,579.7,79.9,508.5,76.2
		C429.9,72.1,372.1-6.5,294.3,3.4c-71.9,9.1-107.2,74.9-152.9,119.4C95.6,167.4,46.6,211.2,25,266c-22.3,56.5-38.3,120.5-9.1,175
		c29.1,54.3,100.8,86.7,165.5,116.6c53.5,24.7,126.1,12.6,176.1,41.4C423,636.7,427.6,740.3,508.5,746z"/>
</g>
</svg>
